<svg width="7016" height="1837" xmlns="http://www.w3.org/2000/svg" xmlns:xlink="http://www.w3.org/1999/xlink" xml:space="preserve" overflow="hidden"><g transform="translate(-13 -2368)"><path d="M2345.19 3408.85 2289.27 3529.99 2252.98 3529.99 2475.15 3046.99 2684.98 3529.99 2649.4 3529.99 2596.43 3408.85ZM2473.7 3128.52 2360.42 3375.84 2581.92 3375.84Z" fill="#010102" fill-rule="evenodd"/><path d="M2840.97 3529.99 2840.97 3052.99 2873.58 3052.99 2873.58 3496.9 3137.97 3496.9 3137.97 3529.96 2840.97 3529.96Z" fill="#010102" fill-rule="evenodd"/><path d="M3324.97 3529.99 3324.97 3052.99 3357.97 3052.99 3357.97 3529.96 3324.97 3529.96Z" fill="#010102" fill-rule="evenodd"/><path d="M3768.39 3534.99C3725.38 3534.99 3685.54 3523.98 3648.78 3501.96 3612.07 3479.94 3583.04 3450.31 3561.79 3412.84 3540.51 3375.4 3529.96 3334.62 3529.96 3290.64 3529.96 3246.63 3540.53 3206.01 3561.79 3168.86 3583.04 3131.7 3612.07 3102.12 3648.78 3080.02 3685.51 3058 3725.38 3046.99 3768.39 3046.99 3801.77 3046.99 3833.71 3053.96 3864.45 3067.94 3895.11 3081.87 3922.08 3101.53 3945.28 3127.01L3919.86 3149.73C3900.55 3127.77 3877.71 3110.66 3851.44 3098.36 3825.05 3086.11 3797.39 3080.02 3768.39 3080.02 3731.18 3080.02 3696.86 3089.46 3665.51 3108.3 3634.1 3127.15 3609.07 3152.68 3590.45 3184.98 3571.83 3217.3 3562.51 3252.47 3562.51 3290.64 3562.51 3328.81 3571.83 3364.03 3590.45 3396.3 3609.07 3428.54 3634.1 3454.13 3665.51 3472.92 3696.86 3491.76 3731.18 3501.23 3768.39 3501.23 3799.33 3501.23 3828.69 3494.38 3856.49 3480.7 3884.29 3466.99 3908.07 3447.89 3927.88 3423.43L3953.96 3443.99C3931.24 3472.83 3903.71 3495.28 3871.33 3511.12 3838.92 3527.07 3804.6 3534.99 3768.39 3534.99Z" fill="#010102" fill-rule="evenodd"/><path d="M4113.96 3529.99 4113.96 3052.99 4418.96 3052.99 4418.96 3086.78 4146.54 3086.78 4146.54 3274.62 4358.83 3274.62 4358.83 3308.36 4146.54 3308.36 4146.54 3495.47 4418.96 3495.47 4418.96 3529.99Z" fill="#010102" fill-rule="evenodd"/><path d="M5053.33 3391.81C5115.6 3455.46 5160.42 3501.46 5187.95 3529.88L5142.36 3529.88 5088.76 3476.99C5066.6 3494.66 5046.05 3508.66 5027.24 3519.2 5008.46 3529.73 4988.66 3534.99 4967.88 3534.99 4939.93 3534.99 4914.34 3529.37 4891.13 3518.07 4868.05 3506.83 4849.74 3491.4 4836.2 3471.84 4822.71 3452.26 4815.95 3430.96 4815.95 3407.94 4815.95 3378.63 4823.68 3354.77 4839.08 3336.42 4854.59 3318.07 4876.7 3301.77 4905.67 3287.52L4891.93 3273.67C4879.88 3261.44 4869.13 3246.46 4859.77 3228.84 4850.35 3211.28 4845.62 3191.13 4845.62 3168.68 4846.12 3152.49 4849.49 3137.09 4855.7 3122.42 4862.04 3107.7 4870.91 3094.74 4882.48 3083.47 4894.12 3072.2 4907.3 3063.66 4922.29 3057.76 4937.27 3051.91 4953.01 3048.99 4969.38 3048.99 4985.8 3048.99 5001.51 3051.91 5016.71 3057.76 5032 3063.66 5045.27 3072.2 5056.85 3083.47 5068.51 3094.74 5077.32 3107.7 5083.72 3122.42 5089.92 3137.09 5093.08 3152.49 5093.08 3168.68 5093.08 3192.65 5082.97 3215.47 5062.7 3236.94 5053.53 3246.74 5043.17 3255.79 5031.56 3264.11L5006.96 3239.83C5023.83 3229.12 5037.07 3217.46 5046.46 3204.99 5055.83 3192.51 5060.48 3180.42 5060.48 3168.68 5060.48 3157.44 5058.29 3146.42 5053.67 3135.6 5049.1 3124.87 5042.67 3115.56 5034.53 3107.67 5016.6 3091.06 4994.86 3082.71 4969.38 3082.71 4944.25 3082.71 4922.81 3091.06 4904.98 3107.67 4888.02 3123.38 4879.13 3143.69 4878.19 3168.65 4878.19 3184.78 4881.82 3199.7 4889.1 3213.44 4896.25 3227.16 4903.95 3238.12 4912.18 3246.46 4944.06 3279.74 4991.15 3328.21 5053.33 3391.81ZM5014.97 3488C5030.87 3479.23 5047.74 3467.66 5065.6 3453.49L4930.38 3312.53C4901.85 3325.77 4881.07 3339.23 4868.11 3352.92 4855.01 3366.63 4848.61 3384.95 4848.61 3407.94 4848.61 3425.14 4853.9 3440.79 4864.42 3454.93 4875.09 3469.15 4889.49 3480.39 4907.86 3488.73 4926.22 3497.08 4946.25 3501.21 4967.91 3501.21 4983.42 3501.21 4999.04 3496.77 5014.97 3488Z" fill="#010102" fill-rule="evenodd"/><path d="M5903.4 3324.92C5919.03 3345.67 5926.94 3369.32 5926.94 3395.73 5926.94 3412.83 5923.11 3429.52 5915.64 3445.95 5908.26 3462.35 5897.45 3476.93 5883.38 3489.65 5868.91 3502.41 5851.89 3512.24 5832.34 3519.34 5812.65 3526.45 5792.02 3529.99 5770.25 3529.99L5596.94 3529.99 5597.55 3052.99 5732.45 3052.99C5776.47 3052.99 5811.59 3065.49 5837.72 3090.43 5849.75 3101.64 5859.08 3114.59 5865.6 3129.31 5872.16 3144 5875.43 3159.14 5875.43 3174.87 5875.43 3194.39 5870.88 3212.25 5862.02 3228.37 5853.02 3244.55 5842 3257.02 5829 3265.82L5822.48 3270.2C5831.7 3273.12 5839.64 3276.07 5846.36 3279.02 5868.66 3288.76 5887.6 3304.02 5903.4 3324.92ZM5630.18 3260.65 5731.09 3260.65C5744.06 3260.65 5754.97 3259.92 5763.69 3258.49 5772.44 3257 5781.1 3254.52 5789.8 3251.1 5802.38 3245.76 5814.31 3236.46 5825.78 3223.23 5837.06 3210.03 5842.75 3193.85 5842.75 3174.84 5842.75 3159.61 5838.53 3145.26 5830.03 3131.83 5821.62 3118.41 5809.04 3107.51 5792.32 3099.14 5775.72 3090.88 5755.75 3086.75 5732.45 3086.75L5630.18 3086.75ZM5835.47 3482.24C5854.41 3472.49 5868.88 3459.94 5879.02 3444.52 5889.18 3429.1 5894.29 3412.83 5894.29 3395.73 5894.29 3376.6 5888.37 3359.35 5876.49 3343.96 5864.63 3328.54 5850.44 3317.22 5834.11 3309.83 5810.82 3299.58 5781.66 3294.41 5746.34 3294.41L5630.18 3294.41 5630.18 3496.93 5770.22 3496.93C5794.85 3496.9 5816.65 3492.13 5835.47 3482.24Z" fill="#010102" fill-rule="evenodd"/><path d="M6301.4 3534.99C6258.42 3534.99 6218.57 3524.08 6181.81 3502.33 6145.13 3480.45 6116.05 3450.8 6094.82 3413.42 6073.59 3375.92 6062.94 3335.11 6062.94 3290.98 6062.94 3246.93 6073.62 3206.08 6094.82 3168.59 6116.05 3131.15 6145.1 3101.56 6181.81 3079.7 6218.54 3057.93 6258.42 3046.99 6301.4 3046.99 6344.46 3046.99 6384.33 3057.93 6421.04 3079.7 6457.81 3101.53 6486.75 3131.15 6508.03 3168.59 6529.23 3206.08 6539.94 3246.93 6539.94 3290.98 6539.94 3335.08 6529.2 3375.92 6508.03 3413.42 6486.75 3450.8 6457.81 3480.45 6421.04 3502.33 6384.36 3524.08 6344.46 3534.99 6301.4 3534.99ZM6301.4 3080.83C6264.27 3080.83 6229.92 3090.31 6198.48 3109.18 6167.1 3128.06 6142.1 3153.51 6123.48 3185.52 6104.92 3217.7 6095.57 3252.86 6095.57 3291 6095.57 3329.2 6104.92 3364.45 6123.48 3396.49 6142.1 3428.55 6167.1 3454.01 6198.48 3472.85 6229.92 3491.7 6264.27 3501.18 6301.4 3501.18 6338.63 3501.18 6372.98 3491.73 6404.34 3472.85 6435.83 3454.01 6460.64 3428.52 6479.09 3396.49 6497.43 3364.42 6506.61 3329.2 6506.61 3291 6506.61 3252.86 6497.43 3217.73 6479.09 3185.52 6460.64 3153.51 6435.8 3128.06 6404.34 3109.18 6373.01 3090.31 6338.63 3080.83 6301.4 3080.83Z" fill="#010102" fill-rule="evenodd"/><path d="M7005.31 3324.92C7021.02 3345.67 7028.93 3369.32 7028.93 3395.73 7028.93 3412.83 7025.19 3429.52 7017.69 3445.95 7010.19 3462.38 6999.4 3476.93 6985.29 3489.65 6970.83 3502.41 6953.84 3512.24 6934.27 3519.34 6914.72 3526.45 6894.01 3529.99 6872.22 3529.99L6698.93 3529.99 6699.68 3052.99 6834.58 3052.99C6878.55 3052.99 6913.53 3065.49 6939.65 3090.43 6951.81 3101.64 6961.11 3114.59 6967.52 3129.31 6974.13 3144 6977.41 3159.14 6977.41 3174.87 6977.41 3194.39 6972.94 3212.25 6963.94 3228.37 6954.98 3244.55 6944.01 3257.02 6930.99 3265.82L6924.44 3270.2C6933.63 3273.12 6941.68 3276.07 6948.43 3279.02 6970.61 3288.82 6989.57 3304.02 7005.31 3324.92ZM6732.22 3260.65 6833.1 3260.65C6846.1 3260.65 6856.98 3259.92 6865.78 3258.49 6874.44 3257 6883.13 3254.52 6891.88 3251.1 6904.31 3245.76 6916.39 3236.46 6927.71 3223.23 6939.1 3210.03 6944.68 3193.85 6944.68 3174.84 6944.68 3159.61 6940.48 3145.26 6932.05 3131.83 6923.55 3118.41 6910.97 3107.51 6894.4 3099.14 6877.69 3090.88 6857.67 3086.75 6834.58 3086.75L6732.22 3086.75ZM6937.54 3482.24C6956.36 3472.49 6970.83 3459.94 6980.99 3444.52 6991.12 3429.1 6996.23 3412.83 6996.23 3395.73 6996.23 3376.6 6990.29 3359.35 6978.46 3343.96 6966.58 3328.54 6952.42 3317.22 6936.07 3309.83 6912.89 3299.58 6883.63 3294.41 6848.32 3294.41L6732.22 3294.41 6732.22 3496.93 6872.19 3496.93C6896.96 3496.9 6918.61 3492.13 6937.54 3482.24Z" fill="#010102" fill-rule="evenodd"/><path d="M5222.95 3374.49C5222.95 3399.07 5203.25 3418.99 5178.95 3418.99 5154.65 3418.99 5134.95 3399.07 5134.95 3374.49 5134.95 3349.91 5154.65 3329.99 5178.95 3329.99 5203.25 3329.99 5222.95 3349.91 5222.95 3374.49Z" fill="#FED731" fill-rule="evenodd"/><path d="M682.256 3210.7C686.333 3215.79 690.215 3220.7 693.987 3225.53 848.151 3183.09 997.878 3181.1 1150.41 3220.25 1159.92 3208.85 1169.87 3196.63 1180.22 3183.29 1242.81 3103.1 1413.47 2830.14 1437.68 2799.07 1483.39 3152.79 1536.72 3566.1 1581.78 3914.73 1733.75 3750.52 1826.99 3529.89 1826.99 3287.1 1826.99 2780.06 1421.1 2368.99 920.477 2368.99 419.825 2368.99 13.9903 2780.06 13.9903 3287.1 13.9903 3530.54 107.67 3751.68 260.337 3915.99 305.568 3566.16 353.462 3155.34 399.497 2799.21 464.946 2876.6 676.709 3203.79 682.256 3210.7Z" fill="#FED731" fill-rule="evenodd"/><path d="M920.408 4204.99C1181.42 4204.99 1416.53 4093.21 1581.99 3914.51 1536.91 3565.92 1483.55 3152.69 1437.83 2798.99 1413.61 2830.05 1242.88 3102.98 1180.26 3183.16 1169.91 3196.53 1159.95 3208.71 1150.43 3220.12 997.869 3180.97 848.079 3182.96 693.823 3225.4 690.049 3220.59 686.165 3215.65 682.087 3210.57 676.566 3203.66 464.713 2876.5 399.209 2799.07 353.154 3155.16 305.24 3565.92 259.99 3915.72 425.4 4093.72 659.975 4204.99 920.408 4204.99Z" fill="#010102" fill-rule="evenodd"/><path d="M1042.43 3836.33C1041.32 3831.07 1042.48 3825.65 1043.9 3820.51 1049.29 3800.85 1058.18 3782.12 1069.4 3765.21 1086.99 3738.91 1110.49 3716.75 1137.87 3701.44 1165.29 3686.11 1196.54 3677.79 1227.88 3677.99 1282.49 3678.33 1336.29 3705.82 1368.99 3750.15 1367.04 3800.32 1339.49 3848.77 1297.54 3875.68 1262.35 3898.15 1218.9 3905.46 1177.54 3900.51 1136.29 3895.48 1096.87 3879 1061.29 3857.17 1057.15 3854.59 1053.1 3852 1049.65 3848.69 1046.24 3845.32 1043.37 3841.05 1042.43 3836.33Z" fill="#FED731" fill-rule="evenodd"/><path d="M1285.9 3684.78C1280.03 3682.61 1274.22 3680.73 1268.1 3679.18 1261.48 3677.53 1254.84 3676.29 1248.08 3675.39 1241.36 3674.55 1234.58 3674.1 1227.74 3673.99 1223.78 3673.99 1219.96 3674.15 1216.06 3674.32 1212.15 3674.6 1208.25 3674.94 1204.4 3675.47 1200.5 3675.95 1196.68 3676.57 1192.83 3677.33 1189.01 3678.09 1185.27 3678.99 1181.45 3679.94 1173.87 3681.91 1166.45 3684.35 1159.2 3687.3 1151.95 3690.25 1144.86 3693.68 1138.02 3697.42 1131.27 3701.24 1124.68 3705.54 1118.31 3710.18 1113.39 3713.83 1108.71 3717.85 1104.08 3721.98 1101.43 3731.7 1099.99 3741.96 1099.99 3752.64 1099.99 3813.59 1146.49 3862.99 1203.99 3862.99 1261.45 3862.99 1307.99 3813.59 1307.99 3752.64 1308.02 3727.04 1299.74 3703.52 1285.9 3684.78Z" fill="#010102" fill-rule="evenodd"/><path d="M1143.99 3762.48C1143.99 3779.28 1156.12 3792.98 1170.97 3792.98 1185.94 3792.98 1197.99 3779.28 1197.99 3762.48 1197.99 3745.63 1185.94 3731.99 1170.97 3731.99 1156.12 3731.96 1143.99 3745.61 1143.99 3762.48Z" fill="#F7F8F9" fill-rule="evenodd"/><path d="M801.547 3836.33C802.658 3831.07 801.519 3825.65 800.047 3820.51 794.658 3800.85 785.823 3782.12 774.517 3765.21 757.043 3738.91 733.458 3716.75 706.039 3701.44 678.648 3686.11 647.396 3677.79 616.087 3677.99 561.444 3678.33 507.662 3705.82 474.993 3750.15 476.882 3800.29 504.495 3848.77 546.443 3875.68 581.612 3898.15 625.088 3905.46 666.425 3900.51 707.734 3895.48 747.126 3879 782.712 3857.17 786.823 3854.59 790.907 3852 794.324 3848.69 797.769 3845.32 800.575 3841.05 801.547 3836.33Z" fill="#FED731" fill-rule="evenodd"/><path d="M557.294 3684.78C563.134 3682.61 569.085 3680.73 575.175 3679.18 581.793 3677.53 588.522 3676.26 595.251 3675.39 602.064 3674.55 608.905 3674.1 615.69 3673.99 619.611 3673.99 623.504 3674.15 627.424 3674.32 631.318 3674.6 635.266 3674.94 639.131 3675.47 643.024 3675.95 646.862 3676.57 650.727 3677.33 654.564 3678.09 658.374 3678.99 662.184 3679.94 669.775 3681.91 677.255 3684.35 684.569 3687.3 691.826 3690.23 698.917 3693.68 705.786 3697.42 712.654 3701.24 719.245 3705.54 725.557 3710.18 730.534 3713.83 735.234 3717.85 739.85 3721.95 742.519 3731.7 743.993 3741.99 743.993 3752.64 743.993 3813.59 697.193 3862.99 639.493 3862.99 581.765 3862.99 534.993 3813.59 534.993 3752.64 535.048 3727.04 543.391 3703.52 557.294 3684.78Z" fill="#010102" fill-rule="evenodd"/><path d="M697.993 3763.49C697.993 3780.33 685.904 3793.99 670.993 3793.99 656.081 3793.99 643.993 3780.33 643.993 3763.49 643.993 3746.64 656.081 3732.99 670.993 3732.99 685.904 3732.99 697.993 3746.64 697.993 3763.49Z" fill="#F7F8F9" fill-rule="evenodd"/></g></svg>